<svg width="7" height="7" viewBox="0 0 7 7" fill="none" xmlns="http://www.w3.org/2000/svg">
<path d="M3.3992 6.59659C2.88358 6.59659 2.4127 6.47088 1.98656 6.21946C1.56042 5.96378 1.21951 5.62287 0.963832 5.19673C0.712411 4.7706 0.586701 4.29972 0.586701 3.78409C0.586701 3.2642 0.712411 2.79332 0.963832 2.37145C1.21951 1.94531 1.56042 1.60653 1.98656 1.35511C2.4127 1.09943 2.88358 0.971591 3.3992 0.971591C3.91909 0.971591 4.38997 1.09943 4.81184 1.35511C5.23798 1.60653 5.57676 1.94531 5.82818 2.37145C6.08386 2.79332 6.2117 3.2642 6.2117 3.78409C6.2117 4.29972 6.08386 4.7706 5.82818 5.19673C5.57676 5.62287 5.23798 5.96378 4.81184 6.21946C4.38997 6.47088 3.91909 6.59659 3.3992 6.59659Z" fill="#FDCB6E"/>
</svg>
